<?xml version="1.0" encoding="UTF-8"?>
<svg width="202px" height="151px" viewBox="0 0 202 151" version="1.1" xmlns="http://www.w3.org/2000/svg" xmlns:xlink="http://www.w3.org/1999/xlink">
    <title>Group 27 Copy 2</title>
    <defs>
        <polygon id="path-1" points="0 0 57 0 57 54 0 54"></polygon>
        <polygon id="path-3" points="0 0 57 0 57 57 0 57"></polygon>
    </defs>
    <g id="Mobile" stroke="none" stroke-width="1" fill="none" fill-rule="evenodd">
        <g id="23_Scenography" transform="translate(-33.000000, -37.000000)">
            <g id="Group-27-Copy-2" transform="translate(33.000000, 37.000000)">
                <g id="Group-3">
                    <mask id="mask-2" fill="white">
                        <use xlink:href="#path-1"></use>
                    </mask>
                    <g id="Clip-2"></g>
                    <path d="M0.61641579,0 L26.2879126,0 C48.3919194,0 57,13.2026474 57,27.1553477 C57,41.3434522 45.9067648,54 24.8401132,54 L0.636094616,54 C0.20597171,54 0.0185543214,53.7178962 0.0185543214,53.4672432 C0.0185543214,53.1832333 0.281875752,52.9478292 0.711061572,52.9478292 L5.24187694,52.9478292 C6.6297027,52.9478292 7.5696009,52.104377 7.5696009,50.5013413 L7.5696009,3.54535828 C7.5696009,2.38453936 6.99891495,1.0836216 5.15004242,1.0836216 L0.54613427,1.0836216 C0.208782971,1.0836216 -0.000187417392,0.827250265 -0.000187417392,0.563254501 C-0.000187417392,0.299258736 0.0860245813,0 0.61641579,0 L0.61641579,0 Z M16.6499734,51.4448641 C16.6499734,52.6133074 17.1681824,52.9726085 17.9375308,52.9726085 L24.7520271,52.9726085 C41.53338,52.9726085 47.6066405,39.9072008 47.6066405,26.8151077 C47.6066405,13.7220614 41.1463631,1.0245323 26.9776086,1.0245323 L17.7060704,1.0245323 C16.764298,1.0245323 16.6790231,1.8470173 16.6790231,2.20536534 L16.6499734,51.4448641 Z" id="Fill-1" fill="#FFFFFF" mask="url(#mask-2)"></path>
                </g>
                <path d="M60.7928597,0 C60.3625056,0 60,0.142978183 60,0.508049142 C60,0.833086211 60.1977303,1.02372379 60.5951294,1.02372379 L65.2553613,1.02372379 C66.3351238,1.02372379 67.3780542,1.74719339 67.3780542,3.78510909 L67.3780542,50.5446939 C67.3780542,51.5045541 66.63075,52.980089 65.3077016,52.980089 L60.6600703,52.980089 C60.1376358,52.980089 60.0707564,53.3918661 60.0707564,53.5596272 C60.0707564,53.7292946 60.0407092,54 60.6465005,54 L83.1993861,54 C83.5299059,54 84,53.9523406 84,53.6253972 C84,53.3013133 83.9147046,52.980089 83.3224829,52.980089 L78.9704778,52.980089 C78.3423933,52.980089 76.6423004,52.5940479 76.6423004,50.7400974 L76.6423004,3.26657488 C76.6423004,1.91876721 77.4913776,1.02372379 79.0741892,1.02372379 L83.3292678,1.02372379 C83.7111587,1.02372379 83.8962885,0.832133023 83.8962885,0.52234696 C83.8962885,0.253547977 83.6811114,0 83.2110173,0 L60.7928597,0 Z" id="Fill-4" fill="#FFFFFF"></path>
                <g id="Group-8" transform="translate(88.000000, 0.000000)">
                    <mask id="mask-4" fill="white">
                        <use xlink:href="#path-3"></use>
                    </mask>
                    <g id="Clip-7"></g>
                    <path d="M9.66871649,28.4999035 C9.66871649,13.3814619 16.2145422,1.12548398 28.4995326,1.12548398 C40.5340188,1.12548398 47.3331529,13.3814619 47.3331529,28.4999035 C47.3331529,43.618345 41.1387809,55.8752884 28.4995326,55.8752884 C16.2145422,55.8752884 9.66871649,43.618345 9.66871649,28.4999035 M28.4995326,57 C45.9740739,57 57,44.240074 57,28.4999035 C57,12.7597329 46.0731539,-0.000193083544 28.4995326,-0.000193083544 C10.9277808,-0.000193083544 0,12.7597329 0,28.4999035 C0,44.240074 11.3811187,57 28.4995326,57" id="Fill-6" fill="#FFFFFF" mask="url(#mask-4)"></path>
                </g>
                <path d="M201.175239,52.6095864 C194.082523,53.335629 190.176067,42.0721578 186.574124,36.7310261 C183.908918,32.780308 178.20729,28.7408202 172.563665,27.9689912 C181.7957,27.4597335 192.186814,24.5854646 192.186814,14.4489012 C192.186814,6.21948434 186.961773,0 167.733039,0 L145.565523,0 C145.277444,0 145,0.141097076 145,0.498044644 C145,0.817615504 145.269711,1.00449905 145.565523,1.00449905 L150.659092,1.00449905 C151.734068,1.00449905 152.777143,1.71465651 152.777143,3.71057276 L152.777143,49.5512372 C152.777143,50.490327 152.030847,51.9386745 150.711294,51.9386745 L145.66026,51.9386745 C145.253277,51.9386745 145.071536,52.2703928 145.071536,52.4367192 C145.071536,52.6030455 145.218475,52.9375671 145.644792,52.9375671 L169.168597,52.9375671 C169.495343,52.9375671 169.770854,52.7712407 169.770854,52.4516698 C169.770854,52.1330334 169.560112,51.9386745 169.09416,51.9386745 L164.337004,51.9386745 C163.711546,51.9386745 162.014011,51.5583665 162.014011,49.740924 L162.014011,28.0764492 L164.444308,28.0764492 C176.075705,28.0764492 176.930273,40.2687316 182.72277,47.2563073 C187.683901,53.2421872 194.147292,54 197.810138,54 C199.371367,54 200.468578,53.9495414 201.433349,53.715937 C202.163212,53.5374632 202.298551,52.4946531 201.175239,52.6095864 M164.441408,1.00449905 L167.850977,1.00449905 C173.692777,1.00449905 183.206123,3.21906904 183.206123,13.9125454 C183.206123,23.7108496 174.769687,27.0327046 166.99351,27.0327046 L162.014011,27.0327046 L162.014011,3.20411836 C162.014011,1.88191729 162.860845,1.00449905 164.441408,1.00449905" id="Fill-9" fill="#FFFFFF"></path>
                <path d="M10.9749216,95.3048476 L14.6792608,95.3048476 C17.5926415,95.3048476 19.0250784,94.3073463 19.0250784,92.0634683 C19.0250784,89.7706147 17.1976572,88.4242879 14.3822802,88.4242879 L10.9749216,88.4242879 L10.9749216,95.3048476 Z M10.9749216,86.7291354 L14.4317769,86.7291354 C17.4194027,86.7291354 18.5805973,85.1829085 18.5805973,83.6626687 C18.5805973,81.6426787 17.4936479,80.6951524 15.2217456,80.6951524 L10.9749216,80.6951524 L10.9749216,86.7291354 Z M9,79 L15.5672331,79 C18.6786009,79 20.5555189,80.9950025 20.5555189,83.4377811 C20.5555189,85.4077961 19.6913051,86.828086 17.5431447,87.5767116 L17.5678931,87.6266867 C19.5675631,88.1244378 21,89.9195402 21,92.1634183 C21,94.856072 19.3705659,97 14.5307705,97 L9,97 L9,79 Z" id="Fill-11" fill="#FFFFFF"></path>
                <polygon id="Fill-13" fill="#FFFFFF" points="26.0837031 89.4207896 21 79 23.0153022 79 27 87.2518741 30.9846978 79 33 79 27.9162969 89.4207896 27.9162969 97 26.0837031 97"></polygon>
                <path d="M109.489165,139.135094 C109.46067,139.006345 109.431225,138.876663 109.405579,138.747913 C109.378984,138.616366 109.353338,138.487616 109.327693,138.356068 C109.304897,138.225453 109.282101,138.092973 109.259305,137.961425 C109.240308,137.828944 109.219412,137.696463 109.199465,137.563982 C109.181418,137.429635 109.164321,137.297154 109.146275,137.161874 C109.132027,137.02846 109.11588,136.893181 109.101632,136.758834 C109.090234,136.623554 109.076937,136.487341 109.065539,136.352061 C109.05604,136.214915 109.046542,136.07777 109.036094,135.941557 C109.030395,135.804411 109.023746,135.666333 109.017097,135.528254 C109.013298,135.390175 109.008549,135.251163 109.004749,135.113085 C109.00285,134.974073 109.0019,134.834128 109,134.69605 C109.0019,134.555172 109.00285,134.414294 109.004749,134.273417 L109.016147,133.853583 L109.035144,133.436548 C109.044642,133.298469 109.054141,133.159458 109.063639,133.021379 C109.074087,132.884233 109.086435,132.746154 109.097833,132.609009 C109.11208,132.472796 109.127278,132.33565 109.140576,132.199437 C109.156723,132.064157 109.17477,131.927945 109.191867,131.791732 C109.210863,131.658318 109.23081,131.523038 109.248857,131.388691 C109.271653,131.255277 109.293499,131.121864 109.314395,130.98845 C109.339091,130.855969 109.364737,130.723488 109.389432,130.591007 C109.416028,130.459459 109.442623,130.327911 109.469218,130.196363 C109.499613,130.065748 109.529058,129.936999 109.558503,129.806384 C109.589847,129.677635 109.623092,129.547953 109.655386,129.420137 C109.68958,129.292321 109.723774,129.164505 109.758918,129.036688 C109.795961,128.910738 109.833005,128.784788 109.869099,128.657905 C109.908042,128.533821 109.947935,128.408803 109.987828,128.284719 C110.030571,128.160635 110.073313,128.036551 110.115106,127.913399 C110.159748,127.792114 110.20439,127.669896 110.249033,127.54861 C110.295574,127.427325 110.341167,127.307906 110.389608,127.187553 C110.439,127.068134 110.488391,126.949647 110.537782,126.830228 C110.590023,126.713607 110.642264,126.596054 110.693555,126.4785 C110.747696,126.363746 110.803736,126.248058 110.856927,126.132371 C110.914867,126.018549 110.970907,125.90566 111.027897,125.790906 C111.087737,125.67895 111.146626,125.567927 111.205516,125.455039 C111.267255,125.344949 111.328995,125.235792 111.390734,125.124769 C111.455323,125.016545 111.518962,124.908322 111.5826,124.799165 C111.649089,124.692807 111.716527,124.587382 111.783016,124.481024 C111.852353,124.376532 111.920742,124.27204 111.99008,124.167548 C112.061317,124.065855 112.132555,123.962296 112.201893,123.860603 C112.27693,123.759842 112.351017,123.659082 112.425104,123.559255 C112.501091,123.460361 112.577077,123.363333 112.653064,123.264438 C112.7319,123.168343 112.809787,123.072248 112.888623,122.976153 C112.969359,122.881923 113.050095,122.788627 113.129881,122.694397 C113.214416,122.602967 113.297052,122.510603 113.380637,122.419173 C113.466123,122.330541 113.550658,122.240977 113.637093,122.151412 C113.724478,122.063713 113.811862,121.977881 113.900197,121.890182 C113.990431,121.805282 114.080666,121.721316 114.1709,121.636416 C114.262084,121.555248 114.356118,121.472214 114.448252,121.390113 C114.543235,121.310811 114.638219,121.230576 114.733202,121.151274 C114.829135,121.073838 114.926968,120.996402 115.023851,120.918966 C115.123584,120.845262 115.223317,120.770625 115.322099,120.695988 C115.423732,120.62415 115.524414,120.552311 115.627946,120.47954 C115.730528,120.411434 115.83596,120.341461 115.939492,120.273355 C116.045873,120.206182 116.152255,120.139941 116.258636,120.072768 C116.366918,120.009326 116.474249,119.945885 116.58348,119.882443 C116.694611,119.8218 116.805741,119.760225 116.915922,119.698649 C117.028952,119.641738 117.141983,119.582961 117.255013,119.525118 C117.370893,119.470073 117.485823,119.415028 117.600753,119.35905 C117.718532,119.30867 117.836312,119.256424 117.954091,119.203245 C118.07377,119.154731 118.19345,119.105284 118.312179,119.055837 C118.434708,119.010121 118.556286,118.964406 118.678815,118.917758 C118.802294,118.874842 118.926722,118.831925 119.050201,118.789942 C119.177478,118.749824 119.303806,118.709707 119.430134,118.670522 C119.558362,118.634137 119.68754,118.596818 119.815767,118.560433 C119.946844,118.527779 120.076972,118.493259 120.208049,118.460605 C120.341026,118.429818 120.473053,118.399963 120.60698,118.370108 C120.741856,118.343985 120.876733,118.316929 121.012559,118.289873 C121.148385,118.267482 121.287061,118.243225 121.422887,118.220834 C121.563463,118.201241 121.702139,118.180716 121.842714,118.161124 C121.98329,118.145264 122.124815,118.12847 122.267291,118.111677 C122.410716,118.099548 122.554141,118.086487 122.697566,118.073425 C122.84384,118.064096 122.990115,118.054766 123.135439,118.046369 C123.282664,118.040772 123.431788,118.035174 123.579012,118.029576 C123.729086,118.02771 123.87821,118.025844 124.029234,118.023978 C128.886688,117.73196 133.504784,120.125014 136,124.228191 C135.131851,124.633097 134.262752,125.038004 133.393654,125.441977 C131.527229,122.253105 127.989094,120.373182 124.250545,120.583099 C124.147963,120.584965 124.045381,120.585898 123.942799,120.586831 C123.841167,120.591496 123.738584,120.595228 123.636952,120.59896 C123.53532,120.60549 123.433687,120.612021 123.332055,120.618552 C123.231373,120.627881 123.12974,120.637211 123.029058,120.646541 C122.928375,120.658669 122.828643,120.669865 122.72796,120.681993 C122.628228,120.695988 122.528495,120.710915 122.428762,120.723977 C122.32998,120.741703 122.231197,120.758496 122.132414,120.77529 C122.034581,120.794882 121.935798,120.813541 121.837015,120.833134 C121.739182,120.855525 121.642299,120.876983 121.544466,120.899374 C121.448533,120.923631 121.35165,120.947888 121.254767,120.972145 C121.158833,120.999201 121.0629,121.026257 120.966967,121.053313 C120.871034,121.082235 120.777,121.111157 120.682016,121.141012 C120.587033,121.172733 120.493949,121.205386 120.398966,121.236174 C120.306832,121.271627 120.212798,121.304281 120.118765,121.3388 C120.02758,121.376119 119.935446,121.412504 119.842363,121.44889 L119.56976,121.566443 C119.479526,121.607494 119.389291,121.649477 119.299057,121.690528 L119.031204,121.822076 C118.943819,121.868724 118.855484,121.914439 118.7681,121.961087 C118.680715,122.009602 118.59428,122.057183 118.506895,122.105697 C118.42236,122.15701 118.334975,122.208323 118.25044,122.258703 C118.165904,122.310949 118.081369,122.365061 117.996834,122.41824 C117.913248,122.473285 117.830613,122.52833 117.747977,122.584308 C117.664392,122.641218 117.582706,122.699062 117.50197,122.756906 C117.421234,122.816616 117.340498,122.877258 117.259762,122.936968 C117.180926,122.998544 117.10114,123.061052 117.022304,123.122628 C116.944417,123.187002 116.866531,123.25231 116.788644,123.315752 C116.711708,123.382925 116.634771,123.449165 116.557834,123.516339 C116.484697,123.584445 116.40966,123.652552 116.334623,123.721591 C116.261486,123.792496 116.188349,123.863402 116.114262,123.93524 C116.041124,124.008011 115.969887,124.080782 115.898649,124.154486 C115.828361,124.229124 115.758074,124.304694 115.686836,124.380264 C115.618448,124.456767 115.55006,124.534203 115.481672,124.610706 C115.414233,124.690941 115.346795,124.770243 115.280307,124.850478 C115.214768,124.932579 115.14923,125.012814 115.084641,125.094914 C115.020052,125.177948 114.956413,125.261915 114.891824,125.344949 C114.831035,125.430782 114.769296,125.516614 114.706607,125.602447 C114.646767,125.690146 114.586927,125.777844 114.526138,125.865543 C114.468198,125.955107 114.409308,126.044672 114.351368,126.133304 C114.295328,126.225667 114.238338,126.318031 114.180398,126.409461 C114.127207,126.502757 114.073067,126.596987 114.017977,126.690283 C113.965736,126.786379 113.913495,126.881541 113.860304,126.976703 C113.809013,127.074665 113.758672,127.172626 113.707381,127.269654 C113.659889,127.369481 113.610497,127.469308 113.562056,127.568203 C113.515514,127.669896 113.468022,127.771589 113.42243,127.873282 C113.377788,127.976841 113.333146,128.079467 113.288503,128.183026 C113.245761,128.288451 113.203018,128.392943 113.161226,128.499301 C113.120383,128.605659 113.08049,128.71295 113.039647,128.820241 C113.001653,128.929398 112.96271,129.037621 112.924717,129.146778 C112.888623,129.257801 112.852529,129.367891 112.816436,129.479846 C112.783191,129.591802 112.748997,129.704691 112.714803,129.816647 C112.684409,129.931401 112.653064,130.046156 112.62077,130.16091 C112.592275,130.276598 112.56283,130.393218 112.533385,130.508906 C112.50679,130.62646 112.479244,130.744946 112.452649,130.863432 C112.428903,130.982852 112.404207,131.102271 112.379512,131.222624 C112.357666,131.343909 112.335819,131.465194 112.313973,131.58648 C112.294027,131.709631 112.27503,131.832782 112.255083,131.955934 C112.237986,132.080951 112.220889,132.205968 112.203792,132.330985 C112.189545,132.456935 112.175297,132.584752 112.1601,132.709769 C112.147752,132.838518 112.136354,132.967267 112.124006,133.096016 C112.115458,133.225698 112.105959,133.35538 112.096461,133.485062 C112.089812,133.61661 112.082213,133.748158 112.076514,133.879706 C112.071765,134.012187 112.067966,134.145601 112.064167,134.279015 C112.063217,134.414294 112.061317,134.549574 112.060367,134.682988 C112.063217,134.850922 112.065116,135.017922 112.068916,135.184923 C112.076514,135.357521 112.084113,135.531053 112.093611,135.702718 C112.107859,135.880914 112.121157,136.05911 112.136354,136.236374 C112.15725,136.419235 112.178147,136.601163 112.199043,136.783091 C112.225638,136.968751 112.253184,137.154411 112.279779,137.341003 C112.313023,137.528529 112.347217,137.716988 112.381411,137.90638 C112.422254,138.095771 112.463097,138.287029 112.50394,138.477354 C112.551432,138.669544 112.597974,138.860802 112.647365,139.052993 C112.67491,139.150021 112.700556,139.246116 112.728101,139.342212 C112.755646,139.43924 112.785091,139.535335 112.813586,139.631431 C112.844931,139.728459 112.874376,139.824554 112.90572,139.92065 C112.938964,140.016745 112.971259,140.11284 113.003553,140.208936 C113.038697,140.305031 113.071941,140.401126 113.107085,140.497221 C113.144129,140.593317 113.181172,140.688479 113.217266,140.784574 C113.256209,140.879737 113.294202,140.974899 113.333146,141.070062 L113.455674,141.355549 C113.498417,141.448845 113.54116,141.544007 113.583902,141.638237 C113.628544,141.732466 113.674136,141.825763 113.719728,141.919059 C113.76722,142.011422 113.813762,142.104719 113.861254,142.198015 C113.910645,142.289446 113.960037,142.382742 114.010378,142.475106 C114.060719,142.565603 114.11296,142.657034 114.165201,142.747531 C114.218392,142.838029 114.272532,142.928526 114.327623,143.018091 C114.383663,143.107656 114.439703,143.196287 114.495743,143.285852 C114.554633,143.374483 114.613523,143.461249 114.672413,143.548948 C114.733202,143.635713 114.793991,143.723412 114.854781,143.810178 C114.91937,143.894144 114.982059,143.979977 115.045698,144.064877 C115.112186,144.148844 115.177725,144.23281 115.243263,144.31771 C115.311651,144.398878 115.380039,144.480979 115.448427,144.56308 C115.519665,144.644248 115.590903,144.725416 115.66119,144.804718 C115.735278,144.884019 115.808415,144.962388 115.881552,145.04169 C115.958489,145.119126 116.034475,145.19563 116.110462,145.272133 C116.188349,145.347703 116.267185,145.423273 116.346971,145.496977 C116.427707,145.570681 116.508443,145.644385 116.590129,145.717157 C116.673714,145.788995 116.75635,145.858967 116.841835,145.930805 C116.92827,145.999845 117.014705,146.068884 117.10209,146.13699 C117.190424,146.204164 117.280659,146.270404 117.370893,146.336645 C117.463027,146.401019 117.555161,146.465394 117.646345,146.529768 C117.741328,146.591344 117.837262,146.651987 117.931295,146.714495 C118.029128,146.774205 118.127911,146.832982 118.224794,146.891759 C118.325477,146.948669 118.426159,147.004647 118.526842,147.061558 C118.630374,147.11567 118.732956,147.168849 118.837438,147.222961 C118.944769,147.273341 119.050201,147.324654 119.157532,147.375967 C119.266763,147.424481 119.375994,147.472995 119.485225,147.520577 C119.598255,147.565359 119.710336,147.611074 119.823366,147.655856 C119.938296,147.69784 120.054176,147.73889 120.169106,147.780874 C120.287835,147.820991 120.405615,147.859243 120.524344,147.897494 C120.646873,147.93388 120.767502,147.969332 120.88908,148.004785 C121.014459,148.037439 121.138887,148.070092 121.263315,148.101813 C121.391543,148.130735 121.519771,148.158724 121.647048,148.188579 C121.778126,148.212836 121.910153,148.238026 122.04028,148.264149 C122.174207,148.284674 122.309083,148.307065 122.44301,148.328524 C122.580736,148.34625 122.718462,148.363976 122.856188,148.381703 C122.996764,148.395697 123.137339,148.409691 123.277915,148.423686 C123.423239,148.433016 123.566664,148.444211 123.710089,148.454474 C123.858264,148.461004 124.005488,148.466602 124.152712,148.473133 C124.304686,148.474999 124.45476,148.476865 124.605783,148.479664 C128.144867,148.455407 131.40565,146.590411 133.172342,143.576937 C134.069936,143.99677 134.96848,144.416604 135.866073,144.836438 C133.536129,148.753022 129.22103,151.112489 124.605783,150.995868 C124.450011,150.994002 124.294238,150.992137 124.139415,150.990271 C123.985541,150.984673 123.831668,150.980008 123.677795,150.97441 C123.527721,150.965081 123.375748,150.955751 123.224724,150.948287 C123.0756,150.935226 122.926476,150.923097 122.778302,150.910969 C122.631077,150.896041 122.484803,150.879248 122.336628,150.86432 C122.193203,150.844728 122.048829,150.826069 121.903504,150.806477 C121.761029,150.784086 121.619503,150.761694 121.477028,150.739303 C121.337402,150.714113 121.196827,150.687057 121.056251,150.661867 C120.918525,150.632945 120.780799,150.604023 120.643073,150.575102 C120.507247,150.542448 120.371421,150.510727 120.234644,150.478073 C120.102617,150.443554 119.968691,150.408101 119.835714,150.371715 C119.704637,150.334397 119.573559,150.296145 119.442482,150.256961 C119.314255,150.21591 119.184127,150.173927 119.05495,150.132876 C118.928622,150.088094 118.802294,150.043312 118.675966,149.999463 C118.551537,149.951881 118.428059,149.9043 118.302681,149.856719 C118.180152,149.807272 118.058573,149.755959 117.937944,149.705579 C117.818265,149.6524 117.698586,149.599221 117.577957,149.545109 C117.461127,149.489131 117.344297,149.433153 117.225568,149.377175 C117.110638,149.318399 116.996658,149.259622 116.880778,149.200845 C116.768698,149.13927 116.656617,149.076761 116.543587,149.015185 C116.433406,148.950811 116.323225,148.886436 116.213044,148.822062 C116.104763,148.754888 115.996482,148.687715 115.888201,148.620541 C115.782769,148.550569 115.677338,148.48153 115.571906,148.411557 C115.468374,148.339719 115.365792,148.266948 115.26226,148.194177 C115.160628,148.11954 115.059945,148.044902 114.959263,147.970265 C114.86143,147.892829 114.762647,147.815393 114.664814,147.73889 C114.567931,147.657722 114.471048,147.57842 114.376064,147.499118 C114.282031,147.416085 114.187997,147.333984 114.093963,147.251883 C114.003729,147.167916 113.912545,147.083016 113.821361,146.998117 C113.733026,146.912284 113.643742,146.824585 113.554457,146.737819 C113.467072,146.649188 113.381587,146.560556 113.295152,146.470992 C113.211567,146.380494 113.127981,146.288131 113.043446,146.197633 C112.96176,146.103404 112.880075,146.010107 112.797439,145.915878 C112.718603,145.820716 112.639766,145.72462 112.55998,145.629458 C112.484943,145.531497 112.408957,145.433535 112.33107,145.336507 C112.257933,145.23668 112.182896,145.136853 112.109759,145.037026 C112.037571,144.935333 111.965384,144.833639 111.895096,144.731946 C111.825758,144.627454 111.75547,144.524828 111.686132,144.420336 C111.619644,144.314911 111.554105,144.209486 111.486667,144.103128 C111.423028,143.995837 111.358439,143.887614 111.293851,143.780323 C111.233061,143.671166 111.170372,143.562009 111.109583,143.451919 C111.050693,143.340897 110.991803,143.230807 110.931964,143.118851 C110.875923,143.005962 110.817984,142.892141 110.762893,142.780185 C110.707803,142.66543 110.654612,142.550676 110.600471,142.436854 C110.54918,142.320234 110.497889,142.204546 110.445648,142.086993 C110.397207,141.969439 110.347815,141.851886 110.299374,141.734332 C110.252832,141.614913 110.20629,141.49456 110.159748,141.376074 C110.116056,141.254788 110.072363,141.133503 110.027721,141.013151 C109.986878,140.890932 109.946035,140.767781 109.904243,140.645563 C109.865299,140.521479 109.827306,140.397394 109.788363,140.274243 C109.754169,140.148293 109.718075,140.023276 109.681981,139.898258 C109.647787,139.771375 109.614543,139.644492 109.581299,139.518542 C109.549954,139.390726 109.520509,139.26291 109.489165,139.135094" id="Fill-15" fill="#FFFFFF"></path>
                <polygon id="Fill-17" fill="#FFFFFF" points="139 151 139 118 142.199727 118 142.199727 136.052456 160.40222 118 164.87168 118 151.794925 130.977043 166 151 162.096194 151 149.490484 133.248811 142.199727 140.525336 142.199727 151"></polygon>
                <path d="M101.361667,132.929829 L101.165764,132.991579 L100.96421,133.059209 L100.757005,133.115078 L100.537556,133.169967 L100.319049,133.219955 L100.087356,133.268963 L99.8566047,133.31209 L99.6145514,133.349336 L99.3649635,133.386582 L99.1097245,133.416967 L98.8488345,133.441471 L98.5822934,133.460094 L98.0256652,133.491459 L97.438898,133.50322 L88.0515658,133.50322 L88.0515658,120.910166 L97.92583,120.910166 L98.4221804,120.916046 L98.8968684,120.94055 L99.3527196,120.971915 L99.7850247,121.020923 L99.9988227,121.052288 L100.206028,121.082673 L100.407582,121.119919 L100.603485,121.163046 L100.792795,121.206173 L100.982105,121.2493 L101.165764,121.298308 L101.343772,121.354177 L101.516129,121.409065 L101.687544,121.464934 L101.853308,121.526684 L102.013421,121.595295 L102.173534,121.661946 L102.470214,121.809949 L102.618083,121.890322 L102.75465,121.970695 L102.890275,122.051068 L103.021191,122.137322 L103.146456,122.229457 L103.269838,122.322571 L103.38851,122.414706 L103.507182,122.513702 L103.720038,122.723456 L103.826466,122.828332 L103.927243,122.93909 L104.022369,123.049848 L104.111844,123.160606 L104.200377,123.278224 L104.284201,123.401724 L104.366141,123.525224 L104.443372,123.648724 L104.58559,123.907485 L104.650577,124.042747 L104.709913,124.178989 L104.769249,124.31425 L104.828585,124.456373 L104.875677,124.598496 L104.929362,124.746499 L105.012244,125.042507 L105.053685,125.196391 L105.089475,125.350276 L105.118672,125.511022 L105.148811,125.670787 L105.172357,125.831533 L105.195903,125.99816 L105.213798,126.164786 L105.231693,126.331413 L105.242995,126.503921 L105.255239,126.676428 L105.26089,126.848936 L105.266541,127.206693 L105.266541,127.478196 L105.249588,127.755581 L105.242995,127.897704 L105.226042,128.032965 L105.213798,128.175088 L105.195903,128.31035 L105.172357,128.452472 L105.148811,128.594595 L105.124323,128.729857 L105.095126,128.871979 L105.059336,129.007241 L105.023546,129.143483 L104.98964,129.284625 L104.947257,129.420867 L104.899223,129.556129 L104.852131,129.692371 L104.798446,129.827632 L104.745703,129.957013 L104.680716,130.093255 L104.62138,130.222636 L104.5498,130.352016 L104.480104,130.481397 L104.402873,130.604897 L104.3247,130.734277 L104.241818,130.857777 L104.153285,130.974416 L104.058159,131.097916 L103.963033,131.215534 L103.862256,131.332173 L103.642807,131.56153 L103.530728,131.671307 L103.406405,131.776184 L103.282081,131.881061 L103.151166,131.985938 L103.014599,132.084934 L102.878973,132.183929 L102.730162,132.276064 L102.42218,132.461314 L102.262067,132.547568 L101.918295,132.707333 L101.741229,132.781825 L101.55757,132.855337 L101.361667,132.929829 Z M101.563221,135.865398 C105.604662,135.193011 108.497057,131.455673 108.265364,127.206693 C108.514952,121.854057 104.13539,117.517843 99.0145985,118.043207 L85,118.043207 L85,151 L88.0280198,151 L88.0280198,136.371159 L98.5945373,136.371159 C100.922769,141.2494 103.257594,146.121759 105.586767,151 L109,151 C106.522957,145.955133 104.040264,140.910266 101.563221,135.865398 L101.563221,135.865398 Z" id="Fill-19" fill="#FFFFFF"></path>
                <path d="M61.9305077,137.952119 L67.6542094,122.218112 L73.1974631,137.952119 L61.9305077,137.952119 Z M68.9974426,118 L66.6111092,118 L54,151 L57.0418386,151 L60.9343608,140.545993 L74.1420534,140.545993 L77.8255873,151 L81,151 L68.9974426,118 Z" id="Fill-21" fill="#FFFFFF"></path>
                <path d="M11.9382713,139.910438 C11.8103405,146.432343 16.3653965,148.427497 21.952908,148.427497 C25.1773038,148.427497 30.0774126,146.608987 30.0774126,141.995774 C30.0774126,138.403381 26.5944524,136.982786 23.7583534,136.274348 L16.9239675,134.545091 C13.3148784,133.614453 10.004895,131.839639 10.004895,126.915904 C10.004895,123.810678 11.9382713,118 20.5772017,118 C26.6385975,118 31.9675447,121.370193 31.9243004,127.846542 L29.0017131,127.846542 C28.8305381,123.012058 24.9610828,120.573433 20.6204459,120.573433 C16.6239608,120.573433 12.9274824,122.168813 12.9274824,126.871278 C12.9274824,129.842626 15.0779806,131.085646 17.5690269,131.704832 L25.0484722,133.614453 C29.3882081,134.810058 33,136.762445 33,141.951148 C33,144.125736 32.1396205,151 21.2655053,151 C14.0013801,151 8.67243301,147.628877 9.01568387,139.910438 L11.9382713,139.910438 Z" id="Fill-23" fill="#FFFFFF"></path>
                <polygon id="Fill-25" fill="#FF4713" points="33 118.001963 57 118 57 121.455143 46.6704584 121.455143 46.6476317 151 43.1332319 151 43.1332319 121.455143 33 121.457105"></polygon>
            </g>
        </g>
    </g>
</svg>